<mxfile host="app.diagrams.net" modified="2021-06-22T12:37:52.402Z" agent="5.0 (Windows NT 10.0; Win64; x64) AppleWebKit/537.36 (KHTML, like Gecko) Chrome/91.0.4472.77 Safari/537.36" etag="jQJRGDUg0H4yQyxZolH5" version="14.8.0" type="github">
  <diagram id="AeT23atfMXd0uCMFiQIc" name="Page-1">
    <mxGraphModel dx="1122" dy="626" grid="1" gridSize="10" guides="1" tooltips="1" connect="1" arrows="1" fold="1" page="1" pageScale="1" pageWidth="827" pageHeight="1169" math="0" shadow="0">
      <root>
        <mxCell id="0" />
        <mxCell id="1" parent="0" />
        <mxCell id="8ohsTLq1N4-sM_qIcSxp-14" style="edgeStyle=orthogonalEdgeStyle;rounded=0;orthogonalLoop=1;jettySize=auto;html=1;exitX=0;exitY=0.5;exitDx=0;exitDy=0;startArrow=classic;startFill=1;" edge="1" parent="1" source="8ohsTLq1N4-sM_qIcSxp-3">
          <mxGeometry relative="1" as="geometry">
            <mxPoint x="110" y="180" as="targetPoint" />
            <Array as="points">
              <mxPoint x="80" y="310" />
              <mxPoint x="80" y="180" />
            </Array>
          </mxGeometry>
        </mxCell>
        <mxCell id="8ohsTLq1N4-sM_qIcSxp-3" value="Pre-Plaus" style="rhombus;whiteSpace=wrap;html=1;" vertex="1" parent="1">
          <mxGeometry x="100" y="270" width="80" height="80" as="geometry" />
        </mxCell>
        <mxCell id="8ohsTLq1N4-sM_qIcSxp-1" value="Fachbereich" style="shape=umlActor;verticalLabelPosition=bottom;verticalAlign=top;html=1;outlineConnect=0;" vertex="1" parent="1">
          <mxGeometry x="125" y="150" width="30" height="60" as="geometry" />
        </mxCell>
        <mxCell id="8ohsTLq1N4-sM_qIcSxp-11" value="IT" style="shape=umlActor;verticalLabelPosition=bottom;verticalAlign=top;html=1;outlineConnect=0;" vertex="1" parent="1">
          <mxGeometry x="399" y="150" width="30" height="60" as="geometry" />
        </mxCell>
        <mxCell id="8ohsTLq1N4-sM_qIcSxp-16" value="" style="pointerEvents=1;shadow=0;dashed=0;html=1;strokeColor=none;fillColor=#505050;labelPosition=center;verticalLabelPosition=bottom;verticalAlign=top;outlineConnect=0;align=center;shape=mxgraph.office.communications.voice_mail_preview;" vertex="1" parent="1">
          <mxGeometry x="540" y="134" width="46" height="56" as="geometry" />
        </mxCell>
        <mxCell id="8ohsTLq1N4-sM_qIcSxp-27" style="edgeStyle=orthogonalEdgeStyle;rounded=0;orthogonalLoop=1;jettySize=auto;html=1;exitX=0;exitY=0;exitDx=0;exitDy=0;startArrow=classic;startFill=1;endArrow=none;endFill=0;" edge="1" parent="1" source="8ohsTLq1N4-sM_qIcSxp-17">
          <mxGeometry relative="1" as="geometry">
            <mxPoint x="440" y="169.8571428571429" as="targetPoint" />
          </mxGeometry>
        </mxCell>
        <mxCell id="8ohsTLq1N4-sM_qIcSxp-17" value="Plaus" style="rhombus;whiteSpace=wrap;html=1;" vertex="1" parent="1">
          <mxGeometry x="480" y="150" width="80" height="80" as="geometry" />
        </mxCell>
        <mxCell id="8ohsTLq1N4-sM_qIcSxp-18" value="" style="endArrow=classic;html=1;exitX=1;exitY=0.5;exitDx=0;exitDy=0;exitPerimeter=0;" edge="1" parent="1" source="8ohsTLq1N4-sM_qIcSxp-20">
          <mxGeometry width="50" height="50" relative="1" as="geometry">
            <mxPoint x="164" y="169.76" as="sourcePoint" />
            <mxPoint x="390" y="170" as="targetPoint" />
          </mxGeometry>
        </mxCell>
        <mxCell id="8ohsTLq1N4-sM_qIcSxp-20" value="" style="shape=mxgraph.signs.tech.mail;html=1;pointerEvents=1;fillColor=#000000;strokeColor=none;verticalLabelPosition=bottom;verticalAlign=top;align=center;" vertex="1" parent="1">
          <mxGeometry x="260" y="160" width="30" height="20" as="geometry" />
        </mxCell>
        <mxCell id="8ohsTLq1N4-sM_qIcSxp-23" style="edgeStyle=orthogonalEdgeStyle;rounded=0;orthogonalLoop=1;jettySize=auto;html=1;exitX=0;exitY=0.5;exitDx=0;exitDy=0;exitPerimeter=0;startArrow=none;startFill=0;endArrow=classic;endFill=1;" edge="1" parent="1" source="8ohsTLq1N4-sM_qIcSxp-22">
          <mxGeometry relative="1" as="geometry">
            <mxPoint x="160" y="200.09523809523807" as="targetPoint" />
          </mxGeometry>
        </mxCell>
        <mxCell id="8ohsTLq1N4-sM_qIcSxp-22" value="" style="shape=mxgraph.signs.tech.mail;html=1;pointerEvents=1;fillColor=#000000;strokeColor=none;verticalLabelPosition=bottom;verticalAlign=top;align=center;" vertex="1" parent="1">
          <mxGeometry x="260" y="190" width="30" height="20" as="geometry" />
        </mxCell>
        <mxCell id="8ohsTLq1N4-sM_qIcSxp-24" value="" style="endArrow=none;html=1;exitX=0;exitY=0.5;exitDx=0;exitDy=0;exitPerimeter=0;" edge="1" parent="1" source="8ohsTLq1N4-sM_qIcSxp-20">
          <mxGeometry width="50" height="50" relative="1" as="geometry">
            <mxPoint x="320" y="300" as="sourcePoint" />
            <mxPoint x="160" y="170" as="targetPoint" />
          </mxGeometry>
        </mxCell>
        <mxCell id="8ohsTLq1N4-sM_qIcSxp-25" value="" style="endArrow=none;html=1;exitX=0;exitY=0.5;exitDx=0;exitDy=0;exitPerimeter=0;" edge="1" parent="1">
          <mxGeometry width="50" height="50" relative="1" as="geometry">
            <mxPoint x="390" y="199.76" as="sourcePoint" />
            <mxPoint x="290" y="199.76" as="targetPoint" />
          </mxGeometry>
        </mxCell>
        <mxCell id="8ohsTLq1N4-sM_qIcSxp-31" value="" style="endArrow=classic;html=1;" edge="1" parent="1">
          <mxGeometry width="50" height="50" relative="1" as="geometry">
            <mxPoint x="490" y="200" as="sourcePoint" />
            <mxPoint x="440" y="199.57999999999998" as="targetPoint" />
          </mxGeometry>
        </mxCell>
      </root>
    </mxGraphModel>
  </diagram>
</mxfile>
